<mxfile host="app.diagrams.net" modified="2024-03-25T12:10:19.796Z" agent="5.0 (Macintosh; Intel Mac OS X 10_15_7) AppleWebKit/537.36 (KHTML, like Gecko) Chrome/122.0.0.0 Safari/537.36" etag="VhowskQ50O4cBCxktbnP" version="20.8.16" type="github">
  <diagram name="第 1 页" id="h6_vGnYJ_OD5_Ige07re">
    <mxGraphModel dx="1306" dy="826" grid="1" gridSize="10" guides="1" tooltips="1" connect="1" arrows="1" fold="1" page="1" pageScale="1" pageWidth="827" pageHeight="1169" math="0" shadow="0">
      <root>
        <mxCell id="0" />
        <mxCell id="1" parent="0" />
        <mxCell id="lBFcBCJgX3d3Oh1-6d5N-2" style="edgeStyle=orthogonalEdgeStyle;rounded=0;orthogonalLoop=1;jettySize=auto;html=1;exitX=1;exitY=0.5;exitDx=0;exitDy=0;" edge="1" parent="1" source="lBFcBCJgX3d3Oh1-6d5N-1">
          <mxGeometry relative="1" as="geometry">
            <mxPoint x="580" y="230" as="targetPoint" />
          </mxGeometry>
        </mxCell>
        <mxCell id="lBFcBCJgX3d3Oh1-6d5N-4" style="edgeStyle=orthogonalEdgeStyle;rounded=0;orthogonalLoop=1;jettySize=auto;html=1;exitX=0.5;exitY=0;exitDx=0;exitDy=0;shape=flexArrow;endArrow=none;endFill=0;startArrow=block;fillColor=#000000;" edge="1" parent="1" source="lBFcBCJgX3d3Oh1-6d5N-1">
          <mxGeometry relative="1" as="geometry">
            <mxPoint x="430" y="150" as="targetPoint" />
          </mxGeometry>
        </mxCell>
        <mxCell id="lBFcBCJgX3d3Oh1-6d5N-1" value="等腰三角形" style="rounded=1;whiteSpace=wrap;html=1;" vertex="1" parent="1">
          <mxGeometry x="370" y="200" width="120" height="60" as="geometry" />
        </mxCell>
        <mxCell id="lBFcBCJgX3d3Oh1-6d5N-3" value="等边三角形" style="text;html=1;strokeColor=none;fillColor=none;align=center;verticalAlign=middle;whiteSpace=wrap;rounded=0;" vertex="1" parent="1">
          <mxGeometry x="580" y="210" width="70" height="40" as="geometry" />
        </mxCell>
        <mxCell id="lBFcBCJgX3d3Oh1-6d5N-5" value="" style="rounded=1;whiteSpace=wrap;html=1;" vertex="1" parent="1">
          <mxGeometry x="370" y="90" width="120" height="60" as="geometry" />
        </mxCell>
        <mxCell id="lBFcBCJgX3d3Oh1-6d5N-6" value="" style="rounded=1;whiteSpace=wrap;html=1;" vertex="1" parent="1">
          <mxGeometry x="290" y="10" width="60" height="60" as="geometry" />
        </mxCell>
        <mxCell id="lBFcBCJgX3d3Oh1-6d5N-7" value="" style="rounded=1;whiteSpace=wrap;html=1;" vertex="1" parent="1">
          <mxGeometry x="380" y="10" width="60" height="60" as="geometry" />
        </mxCell>
        <mxCell id="lBFcBCJgX3d3Oh1-6d5N-8" value="" style="rounded=1;whiteSpace=wrap;html=1;" vertex="1" parent="1">
          <mxGeometry x="480" y="10" width="60" height="60" as="geometry" />
        </mxCell>
        <mxCell id="lBFcBCJgX3d3Oh1-6d5N-9" value="" style="rounded=1;whiteSpace=wrap;html=1;" vertex="1" parent="1">
          <mxGeometry x="370" y="330" width="120" height="60" as="geometry" />
        </mxCell>
      </root>
    </mxGraphModel>
  </diagram>
</mxfile>
